<?xml version="1.0" encoding="UTF-8"?>
<svg version="1.1" xmlns="http://www.w3.org/2000/svg" width="500" height="500">
<path d="M0 0 C165 0 330 0 500 0 C500 165 500 330 500 500 C335 500 170 500 0 500 C0 335 0 170 0 0 Z " fill="#FEFEFE" transform="translate(0,0)"/>
<path d="M0 0 C2.475 0.495 2.475 0.495 5 1 C5 1.66 5 2.32 5 3 C5.83144531 3.2371875 6.66289062 3.474375 7.51953125 3.71875 C11.58505661 5.21537438 15.01729865 7.22745198 18.6875 9.5 C19.35072266 9.90347656 20.01394531 10.30695313 20.69726562 10.72265625 C23.50030417 12.43327192 26.2675324 14.17835494 29 16 C29 16.66 29 17.32 29 18 C29.5775 18.268125 30.155 18.53625 30.75 18.8125 C33.0325868 20.01719859 34.9737942 21.40798115 37 23 C36.67 25.31 36.34 27.62 36 30 C37.98 30 39.96 30 42 30 C45.42857143 37.28571429 45.42857143 37.28571429 45 42 C45.66 41.67 46.32 41.34 47 41 C47.66 37.37 48.32 33.74 49 30 C56.92 30 64.84 30 73 30 C74.58150289 37.99537572 74.58150289 37.99537572 73 43 C68.09388111 48.35087404 61.40734861 52.63485185 55 56 C54.34 56 53.68 56 53 56 C53 56.66 53 57.32 53 58 C48.08528919 62.23078665 43.96641961 62.63874702 37.625 62.75 C36.79355469 62.77964844 35.96210938 62.80929688 35.10546875 62.83984375 C33.07082173 62.91000399 31.03540909 62.95732895 29 63 C26.37522113 74.32959215 23.83406593 85.66917219 21.5 97.0625 C19.85790622 105.04741731 18.12402638 113.00362083 16.25 120.9375 C16.03923828 121.83799072 15.82847656 122.73848145 15.61132812 123.66625977 C14.12318586 129.87681414 14.12318586 129.87681414 13 131 C9.97022196 131.08871273 6.96332978 131.1151935 3.93359375 131.09765625 C3.02497086 131.0962413 2.11634796 131.09482635 1.18019104 131.09336853 C-1.73407221 131.08775193 -4.64825981 131.07519665 -7.5625 131.0625 C-9.53320202 131.05748714 -11.50390524 131.05292386 -13.47460938 131.04882812 C-18.31643559 131.03777711 -23.15820495 131.02050138 -28 131 C-27.85604369 129.26666012 -27.70812909 127.53364874 -27.55859375 125.80078125 C-27.47665771 124.83567627 -27.39472168 123.87057129 -27.31030273 122.8762207 C-26.76653404 117.83598547 -25.70014166 113.0145485 -24.03662109 108.22802734 C-23.06670813 105.20772844 -22.39136738 102.2999191 -21.81640625 99.18359375 C-21.51077759 97.55272827 -21.51077759 97.55272827 -21.19897461 95.88891602 C-20.98893799 94.74994873 -20.77890137 93.61098145 -20.5625 92.4375 C-19.09842407 84.65702793 -17.61051277 76.91450736 -15.75 69.21875 C-14.54367096 64.04158789 -13.49536484 58.83025085 -12.44506836 53.61938477 C-12.28659424 52.84908936 -12.12812012 52.07879395 -11.96484375 51.28515625 C-11.8268335 50.60332275 -11.68882324 49.92148926 -11.54663086 49.21899414 C-11 47 -11 47 -10.02734375 44.1706543 C-8.9316871 40.78916834 -8.24169911 37.47947136 -7.59765625 33.984375 C-7.3444441 32.63671066 -7.09118746 31.28905468 -6.83789062 29.94140625 C-6.45025366 27.85104891 -6.06440765 25.76037459 -5.67993164 23.66943359 C-4.19731213 15.63992343 -2.6037577 7.75449333 0 0 Z " fill="#030404" transform="translate(171,179)"/>
<path d="M0 0 C9.24 0 18.48 0 28 0 C28.07120969 11.96322812 28.08418385 23.86383238 27.5 35.8125 C26.86392637 48.87496051 26.90108627 61.92512637 27 75 C27.66 73.02 28.32 71.04 29 69 C29.66 69 30.32 69 31 69 C31.3403125 67.14375 31.3403125 67.14375 31.6875 65.25 C33.03104503 59.18022565 35.53537775 53.68356827 38 48 C38.67364704 46.33614247 39.34073285 44.66960745 40 43 C41.46356309 39.31748643 42.97058827 35.65566707 44.5 32 C45.12261719 30.49759766 45.12261719 30.49759766 45.7578125 28.96484375 C46.56741189 27.03249805 47.39475299 25.10746101 48.2421875 23.19140625 C48.61601562 22.32386719 48.98984375 21.45632812 49.375 20.5625 C49.71273437 19.80066406 50.05046875 19.03882813 50.3984375 18.25390625 C51.16216927 15.39239174 50.92363795 13.81031072 50 11 C48.39857894 8.56824298 48.39857894 8.56824298 46.4375 6.3125 C43 2.1971831 43 2.1971831 43 0 C57.19 0 71.38 0 86 0 C82.64298401 11.19005329 82.64298401 11.19005329 80.625 15.375 C77.06002862 22.97317781 73.89660687 30.71762584 70.81811523 38.52441406 C68.2512529 45.02326163 65.47352406 51.36492408 62.5 57.69140625 C60.6147217 61.84981959 58.9278424 66.07602496 57.25878906 70.32397461 C55.06320089 75.89877782 52.7013253 81.39133017 50.296875 86.87890625 C49.04814534 89.88413215 47.98812204 92.90046624 47 96 C46.34 96 45.68 96 45 96 C44.86722656 96.56589844 44.73445313 97.13179688 44.59765625 97.71484375 C44.42105469 98.44832031 44.24445313 99.18179688 44.0625 99.9375 C43.88847656 100.66839844 43.71445312 101.39929688 43.53515625 102.15234375 C43 104 43 104 42 105 C40.64905018 105.09268999 39.29332909 105.11747326 37.93920898 105.11352539 C37.07839218 105.11344986 36.21757538 105.11337433 35.33067322 105.11329651 C34.39526199 105.10813522 33.45985077 105.10297394 32.49609375 105.09765625 C31.54307877 105.0962413 30.59006378 105.09482635 29.60816956 105.09336853 C26.55124835 105.08775152 23.49439923 105.07519616 20.4375 105.0625 C18.37044376 105.05748719 16.30338638 105.05292391 14.23632812 105.04882812 C9.15752412 105.03777656 4.0787743 105.02050055 -1 105 C-1.02334864 94.11514081 -1.04102836 83.23028774 -1.05181217 72.34540844 C-1.05699236 67.28910107 -1.06399963 62.23281106 -1.07543945 57.17651367 C-1.08644373 52.28111416 -1.09231328 47.38573115 -1.09487724 42.49032021 C-1.09670034 40.63878432 -1.10025878 38.78724915 -1.10573006 36.93572044 C-1.14072758 24.58127811 -0.7421609 12.33425189 0 0 Z " fill="#1C91C7" transform="translate(248,192)"/>
<path d="M0 0 C3 1 3 1 4 3 C5.01320312 2.65775391 5.01320312 2.65775391 6.046875 2.30859375 C7.38492188 1.87740234 7.38492188 1.87740234 8.75 1.4375 C9.63171875 1.14746094 10.5134375 0.85742188 11.421875 0.55859375 C14.07834316 -0.01697435 15.47031106 0.10751629 18 1 C16.3767313 1.6708712 14.75132422 2.33657029 13.125 3 C12.22007812 3.37125 11.31515625 3.7425 10.3828125 4.125 C8 5 8 5 6 5 C8.08086381 7.48102993 9.53633021 8.84772974 12.640625 9.8671875 C17.27246286 10.05030667 20.13295566 8.37608831 24.125 6.1875 C24.82753906 5.81818359 25.53007812 5.44886719 26.25390625 5.06835938 C27.56394489 4.37866984 28.87056772 3.68241988 30.17236328 2.97729492 C30.7754834 2.6547876 31.37860352 2.33228027 32 2 C32.79393661 1.48178932 32.79393661 1.48178932 33.60391235 0.95310974 C37.08105086 -0.4300177 40.48026439 -0.26141237 44.16503906 -0.22705078 C44.9849231 -0.22734283 45.80480713 -0.22763489 46.64953613 -0.22793579 C49.35500737 -0.22654432 52.06020197 -0.2109917 54.765625 -0.1953125 C56.64320729 -0.19158172 58.52079153 -0.18873506 60.39837646 -0.18673706 C65.33692818 -0.17910571 70.27536201 -0.15946145 75.21386719 -0.1373291 C80.25454107 -0.11685998 85.29523402 -0.10773306 90.3359375 -0.09765625 C100.22401009 -0.07621513 110.11199524 -0.04208514 120 0 C119.84806492 1.42797677 119.6942006 2.85574835 119.53953552 4.28343201 C119.4540618 5.07854407 119.36858809 5.87365614 119.28052425 6.69286251 C118.9094131 9.74502087 118.31234433 12.71880896 117.66015625 15.72265625 C117.40169922 16.92083984 117.14324219 18.11902344 116.87695312 19.35351562 C116.47379883 21.18946289 116.47379883 21.18946289 116.0625 23.0625 C115.79759766 24.29033203 115.53269531 25.51816406 115.25976562 26.78320312 C113.93493183 32.88795837 112.51591392 38.93634431 111 45 C102.09 45 93.18 45 84 45 C84 45.66 84 46.32 84 47 C79.05 47 74.1 47 69 47 C69.47687702 41.89060335 69.99246598 37.0376701 71 32 C65.39 32 59.78 32 54 32 C53.67 32.99 53.34 33.98 53 35 C52.17822266 34.47212891 52.17822266 34.47212891 51.33984375 33.93359375 C46.38249256 30.84633277 41.37622785 28.17633343 36.0625 25.75 C29.91917474 22.94406596 23.87473658 19.97662225 17.875 16.875 C16.66662476 16.26350098 16.66662476 16.26350098 15.43383789 15.63964844 C10.8378952 13.23923828 7.46199073 10.86347635 4 7 C3.4225 6.484375 2.845 5.96875 2.25 5.4375 C0.73499307 3.69524203 0.38813882 2.25120518 0 0 Z " fill="#030303" transform="translate(160,143)"/>
<path d="M0 0 C2 2 2 2 2.25 4.75 C1.98998031 8.13025595 1.20288037 10.84243904 0 14 C-0.66 14 -1.32 14 -2 14 C-2.27457031 14.60457031 -2.54914063 15.20914063 -2.83203125 15.83203125 C-7.56230071 24.6122973 -21.84658413 31.70336746 -31 35 C-19.24766993 33.16764746 -6.34163451 23.78793864 0.984375 14.609375 C2.33549216 12.46837396 2.84748686 10.51646681 3 8 C3.66 8 4.32 8 5 8 C5.44317502 14.80766079 5.70048673 20.59257991 1 26 C-1.85240264 28.85746907 -4.75688576 31.58957725 -8 34 C-8.66 34 -9.32 34 -10 34 C-10 34.66 -10 35.32 -10 36 C16.73 36 43.46 36 71 36 C70.505 36.99 70.505 36.99 70 38 C68.47475708 37.97335266 68.47475708 37.97335266 66.91870117 37.94616699 C57.27015531 37.7830033 47.62189433 37.66360112 37.97227478 37.58550262 C33.01282632 37.54399857 28.05450378 37.48783395 23.09570312 37.39648438 C18.29746675 37.30866002 13.50030341 37.26154027 8.70132446 37.24098206 C6.88342422 37.22635896 5.06557339 37.19780892 3.24813843 37.15415955 C-9.91175417 36.85107388 -18.72584219 39.22126699 -30 46 C-33.8032956 48.1405659 -35.70156412 48.16415972 -40 47 C-42.375 45.5625 -42.375 45.5625 -44 44 C-44 43.34 -44 42.68 -44 42 C-40.7 40.68 -37.4 39.36 -34 38 C-35.24716797 38.37705078 -35.24716797 38.37705078 -36.51953125 38.76171875 C-37.60621094 39.06722656 -38.69289062 39.37273437 -39.8125 39.6875 C-40.89144531 40.00074219 -41.97039062 40.31398437 -43.08203125 40.63671875 C-46 41 -46 41 -47.88671875 39.58203125 C-48.25410156 39.05996094 -48.62148437 38.53789062 -49 38 C-48.525625 38.763125 -48.05125 39.52625 -47.5625 40.3125 C-46 43 -46 43 -45 46 C-43.20851032 47.09442029 -43.20851032 47.09442029 -41 48 C-39.31975268 48.87795625 -37.64154281 49.75981746 -35.96484375 50.64453125 C-34.98966797 51.15693359 -34.01449219 51.66933594 -33.00976562 52.19726562 C-30.98783676 53.26028862 -28.96697238 54.32533922 -26.94726562 55.39257812 C-21.1638715 58.42630353 -15.33358811 61.24950384 -9.37280273 63.91674805 C-2.94279027 66.85223167 3.04131516 69.98866377 7 76 C7.41894531 76.55816406 7.83789062 77.11632812 8.26953125 77.69140625 C12.14000077 82.8557503 14.28770036 87.01177638 14.1875 93.625 C14.18105469 94.56601563 14.17460937 95.50703125 14.16796875 96.4765625 C14 99 14 99 13 102 C12.34 102 11.68 102 11 102 C10.79375 100.865625 10.5875 99.73125 10.375 98.5625 C9.26444487 93.98146008 6.99269241 90.65982164 4.2421875 86.8828125 C3 85 3 85 3 83 C2.34 83 1.68 83 1 83 C2.50487413 86.16023567 4.0182369 89.02542113 6.0625 91.875 C9.58228809 97.55207757 10.5025447 103.34128273 10 110 C9 112.9375 9 112.9375 8 115 C7.34 115 6.68 115 6 115 C5.80083984 114.07767578 5.80083984 114.07767578 5.59765625 113.13671875 C5.42105469 112.32847656 5.24445313 111.52023438 5.0625 110.6875 C4.88847656 109.88699219 4.71445313 109.08648437 4.53515625 108.26171875 C4.00113841 105.854599 4.00113841 105.854599 3 103 C1.02 103 -0.96 103 -3 103 C-2.855625 101.948125 -2.71125 100.89625 -2.5625 99.8125 C-2.58152237 96.08563304 -2.58152237 96.08563304 -4.55859375 94.4921875 C-5.83508711 93.63434287 -7.13914257 92.81593498 -8.46875 92.04296875 C-9.22671875 91.52669922 -9.22671875 91.52669922 -10 91 C-10 90.34 -10 89.68 -10 89 C-10.56170898 88.72365723 -11.12341797 88.44731445 -11.70214844 88.16259766 C-14.08613651 86.95641925 -16.42588688 85.68829313 -18.765625 84.3984375 C-19.65507812 83.90859375 -20.54453125 83.41875 -21.4609375 82.9140625 C-22.38132813 82.40617187 -23.30171875 81.89828125 -24.25 81.375 C-25.18585938 80.859375 -26.12171875 80.34375 -27.0859375 79.8125 C-29.39100789 78.54235918 -31.69568028 77.27150204 -34 76 C-34 75.34 -34 74.68 -34 74 C-35.03447266 73.87818359 -35.03447266 73.87818359 -36.08984375 73.75390625 C-42.51640232 72.0890394 -49.51923855 66.9947931 -53.734375 61.90625 C-56.25635903 57.30088786 -56.43814256 53.17008223 -56 48 C-55.67 47.01 -55.34 46.02 -55 45 C-54.34 45 -53.68 45 -53 45 C-52.814375 45.825 -52.62875 46.65 -52.4375 47.5 C-49.39619687 54.90491197 -44.07193813 59.53619357 -37 63 C-39.40304582 60.52829573 -41.70451267 58.21422832 -44.5 56.1875 C-48.34504935 52.82308182 -51.60554566 48.89923939 -52.3125 43.703125 C-52.3125 41.5 -52.3125 41.5 -52 38 C-52.66 38 -53.32 38 -54 38 C-54 37.34 -54 36.68 -54 36 C-53.05125 35.9175 -52.1025 35.835 -51.125 35.75 C-50.09375 35.5025 -49.0625 35.255 -48 35 C-47.68603271 34.36449219 -47.37206543 33.72898438 -47.04858398 33.07421875 C-45.73661592 30.47899624 -44.76448508 30.11840486 -42.09765625 29.0625 C-41.29859863 28.7310498 -40.49954102 28.39959961 -39.67626953 28.05810547 C-38.81372559 27.70893066 -37.95118164 27.35975586 -37.0625 27 C-29.56685178 23.79420248 -22.53202877 20.21074926 -15.625 15.875 C-14.84777588 15.39675781 -14.07055176 14.91851562 -13.26977539 14.42578125 C-7.57221335 10.76417631 -2.20156656 6.60469967 0 0 Z " fill="#27ADDA" transform="translate(210,106)"/>
<path d="M0 0 C2 2 2 2 2.25 4.75 C1.98998031 8.13025595 1.20288037 10.84243904 0 14 C-0.66 14 -1.32 14 -2 14 C-2.27457031 14.60457031 -2.54914063 15.20914063 -2.83203125 15.83203125 C-7.56230071 24.6122973 -21.84658413 31.70336746 -31 35 C-19.24766993 33.16764746 -6.34163451 23.78793864 0.984375 14.609375 C2.33549216 12.46837396 2.84748686 10.51646681 3 8 C3.66 8 4.32 8 5 8 C5.44317502 14.80766079 5.70048673 20.59257991 1 26 C-1.85240264 28.85746907 -4.75688576 31.58957725 -8 34 C-8.66 34 -9.32 34 -10 34 C-10 34.66 -10 35.32 -10 36 C16.73 36 43.46 36 71 36 C70.505 36.99 70.505 36.99 70 38 C68.47475708 37.97335266 68.47475708 37.97335266 66.91870117 37.94616699 C57.27015531 37.7830033 47.62189433 37.66360112 37.97227478 37.58550262 C33.01282632 37.54399857 28.05450378 37.48783395 23.09570312 37.39648438 C18.29746675 37.30866002 13.50030341 37.26154027 8.70132446 37.24098206 C6.88342422 37.22635896 5.06557339 37.19780892 3.24813843 37.15415955 C-9.91175417 36.85107388 -18.72584219 39.22126699 -30 46 C-33.8032956 48.1405659 -35.70156412 48.16415972 -40 47 C-42.375 45.5625 -42.375 45.5625 -44 44 C-44 43.34 -44 42.68 -44 42 C-40.7 40.68 -37.4 39.36 -34 38 C-37.96 38.99 -41.92 39.98 -46 41 C-46.66 40.01 -47.32 39.02 -48 38 C-51.08365871 37.7497843 -51.08365871 37.7497843 -54 38 C-54 37.34 -54 36.68 -54 36 C-53.05125 35.9175 -52.1025 35.835 -51.125 35.75 C-50.09375 35.5025 -49.0625 35.255 -48 35 C-47.68603271 34.36449219 -47.37206543 33.72898438 -47.04858398 33.07421875 C-45.73661592 30.47899624 -44.76448508 30.11840486 -42.09765625 29.0625 C-41.29859863 28.7310498 -40.49954102 28.39959961 -39.67626953 28.05810547 C-38.81372559 27.70893066 -37.95118164 27.35975586 -37.0625 27 C-29.56685178 23.79420248 -22.53202877 20.21074926 -15.625 15.875 C-14.84777588 15.39675781 -14.07055176 14.91851562 -13.26977539 14.42578125 C-7.57221335 10.76417631 -2.20156656 6.60469967 0 0 Z " fill="#8B8B8B" transform="translate(210,106)"/>
<path d="M0 0 C4.58928719 0.31987919 8.02804145 1.80834704 12.0625 3.9375 C16.23949956 6.12634039 16.23949956 6.12634039 20.5546875 8.015625 C27.02331712 10.61961009 33.11685031 14.10336529 37 20 C37.41894531 20.55816406 37.83789062 21.11632812 38.26953125 21.69140625 C42.14000077 26.8557503 44.28770036 31.01177638 44.1875 37.625 C44.18105469 38.56601563 44.17460937 39.50703125 44.16796875 40.4765625 C44 43 44 43 43 46 C42.34 46 41.68 46 41 46 C40.79375 44.865625 40.5875 43.73125 40.375 42.5625 C39.26444487 37.98146008 36.99269241 34.65982164 34.2421875 30.8828125 C33 29 33 29 33 27 C32.34257812 26.77441406 31.68515625 26.54882812 31.0078125 26.31640625 C27.03093435 24.57587646 23.51861334 22.28361533 19.875 19.9375 C18.45759313 19.02703955 17.03839082 18.11936661 15.6171875 17.21484375 C14.99440918 16.81386475 14.37163086 16.41288574 13.72998047 15.99975586 C11.85959821 14.84159705 11.85959821 14.84159705 9 14 C9 13.34 9 12.68 9 12 C6.67184639 10.44789759 4.41205571 9.16482228 1.8125 8.125 C-0.70576933 6.56193628 -1.12882028 4.75873578 -2 2 C-1.34 1.34 -0.68 0.68 0 0 Z " fill="#2CB3D9" transform="translate(180,162)"/>
<path d="M0 0 C3.7890625 0.703125 3.7890625 0.703125 5.6875 3.375 C7 6 7 6 8 9 C9.7213733 10.05037629 9.7213733 10.05037629 12 11 C14.25301745 12.20269772 16.50278131 13.41150191 18.75 14.625 C19.35199219 14.94984375 19.95398438 15.2746875 20.57421875 15.609375 C22.04977297 16.40570585 23.52492686 17.20277839 25 18 C24.49855469 18.61359375 23.99710938 19.2271875 23.48046875 19.859375 C21.72497014 21.88172436 21.72497014 21.88172436 22.3125 24.25 C22.6528125 25.11625 22.6528125 25.11625 23 26 C23.61875 26.12375 24.2375 26.2475 24.875 26.375 C27 27 27 27 29 29 C30.31747324 29.69748583 31.64914193 30.36959957 33 31 C32.67 31.66 32.34 32.32 32 33 C32.67804688 33.07347656 33.35609375 33.14695313 34.0546875 33.22265625 C37.90026222 34.23760236 40.86481902 36.24459932 44.125 38.4375 C44.74503906 38.84548828 45.36507812 39.25347656 46.00390625 39.67382812 C47.67435032 40.77488427 49.33753891 41.88692716 51 43 C51.99 43.66 52.98 44.32 54 45 C54 45.99 54 46.98 54 48 C51.57611294 46.88128289 49.47068155 45.63882687 47.2578125 44.12890625 C44.08101942 42.05294434 40.90640036 40.35488522 37.5 38.6875 C36.90485596 38.39190186 36.30971191 38.09630371 35.6965332 37.79174805 C32.48579477 36.19962202 29.25910959 34.64873876 26.01171875 33.1328125 C25.37105469 32.82770752 24.73039062 32.52260254 24.0703125 32.20825195 C22.27437789 31.35383234 20.47132928 30.51441395 18.66796875 29.67578125 C16 28 16 28 15.37890625 25.99609375 C15.25386719 25.33738281 15.12882813 24.67867187 15 24 C13.09451967 22.28249873 13.09451967 22.28249873 10.75 20.75 C5.57400273 16.87624408 1.82359045 12.97552684 0.48046875 6.4921875 C0.22507451 4.31963381 0.05566068 2.18594687 0 0 Z " fill="#108AC0" transform="translate(157,143)"/>
<path d="M0 0 C5.82311854 0.74112418 9.51355557 4.13639465 13.2109375 8.55859375 C18.08254395 15.41448869 20.07997164 21.92475083 19.4375 30.4375 C18.4375 33.375 18.4375 33.375 17.4375 35.4375 C16.7775 35.4375 16.1175 35.4375 15.4375 35.4375 C15.23833984 34.51517578 15.23833984 34.51517578 15.03515625 33.57421875 C14.85855469 32.76597656 14.68195313 31.95773438 14.5 31.125 C14.23896484 29.92423828 14.23896484 29.92423828 13.97265625 28.69921875 C13.43863841 26.292099 13.43863841 26.292099 12.4375 23.4375 C10.4575 23.4375 8.4775 23.4375 6.4375 23.4375 C6.581875 22.385625 6.72625 21.33375 6.875 20.25 C6.85597763 16.52313304 6.85597763 16.52313304 4.87890625 14.9296875 C3.60241289 14.07184287 2.29835743 13.25343498 0.96875 12.48046875 C0.4634375 12.13628906 -0.041875 11.79210937 -0.5625 11.4375 C-0.5625 10.7775 -0.5625 10.1175 -0.5625 9.4375 C-1.5525 9.1075 -2.5425 8.7775 -3.5625 8.4375 C-3.60491723 6.10455225 -3.60342937 3.77047433 -3.5625 1.4375 C-2.5625 0.4375 -2.5625 0.4375 0 0 Z " fill="#2EB9E2" transform="translate(200.5625,185.5625)"/>
<path d="M0 0 C2 2 2 2 2.25 4.75 C1.98998031 8.13025595 1.20288037 10.84243904 0 14 C-0.66 14 -1.32 14 -2 14 C-2.40605469 14.90298828 -2.40605469 14.90298828 -2.8203125 15.82421875 C-6.7107929 22.99970743 -15.91736997 27.62351347 -23 31 C-24.32 31 -25.64 31 -27 31 C-27 30.34 -27 29.68 -27 29 C-27.66 29 -28.32 29 -29 29 C-29.33 29.99 -29.66 30.98 -30 32 C-31.32 31.34 -32.64 30.68 -34 30 C-31.11463385 24.9896967 -28.61044634 22.80791698 -23.375 20.0625 C-22.12175279 19.38247887 -20.87045926 18.69884548 -19.62109375 18.01171875 C-19.00733887 17.67575684 -18.39358398 17.33979492 -17.76123047 16.99365234 C-10.57324499 12.93832924 -2.72725227 8.18175682 0 0 Z " fill="#999999" transform="translate(210,106)"/>
<path d="M0 0 C0.66 0 1.32 0 2 0 C2.185625 0.825 2.37125 1.65 2.5625 2.5 C5.29058254 9.14228793 9.88249556 13.43145575 16 17 C19 21.24137931 19 21.24137931 19 24 C18.34 24 17.68 24 17 24 C16.773125 23.360625 16.54625 22.72125 16.3125 22.0625 C15.14749104 19.72806339 15.14749104 19.72806339 12.375 19.25 C11.59125 19.1675 10.8075 19.085 10 19 C10 19.66 10 20.32 10 21 C11.32 20.67 12.64 20.34 14 20 C14.433125 20.763125 14.86625 21.52625 15.3125 22.3125 C16.73686785 24.58093768 18.03260097 26.2199723 20 28 C19.34 28.33 18.68 28.66 18 29 C9.97090349 24.83676477 2.25691072 19.74223405 -1 11 C-1.4047583 7.12903882 -1.24114026 3.72342077 0 0 Z " fill="#1985B6" transform="translate(155,151)"/>
<path d="M0 0 C0.66 0.33 1.32 0.66 2 1 C1.01 2.32 0.02 3.64 -1 5 C-0.01 5.33 0.98 5.66 2 6 C2.33 5.34 2.66 4.68 3 4 C3.66 4 4.32 4 5 4 C5 4.66 5 5.32 5 6 C5.66 6.33 6.32 6.66 7 7 C2.72121043 9.18717283 -1.52781069 11.23466212 -6 13 C-7.546875 13.8353125 -7.546875 13.8353125 -9.125 14.6875 C-12 16 -12 16 -15 15 C-15.33 14.34 -15.66 13.68 -16 13 C-17.98 13 -19.96 13 -22 13 C-22 12.34 -22 11.68 -22 11 C-21.05125 10.9175 -20.1025 10.835 -19.125 10.75 C-18.09375 10.5025 -17.0625 10.255 -16 10 C-15.74992188 9.39285156 -15.49984375 8.78570312 -15.2421875 8.16015625 C-13.36447823 4.89483164 -10.35216636 4.03038592 -7 2.6875 C-6.03707031 2.27274414 -6.03707031 2.27274414 -5.0546875 1.84960938 C-3.39772539 1.16151946 -1.7002001 0.5729841 0 0 Z " fill="#B8B8B8" transform="translate(178,131)"/>
<path d="M0 0 C5.18908306 2.13403849 7.39397518 6.21717798 10 11 C12.26217407 16.80482403 13.02556176 22.98741234 11 28.9375 C10.505 29.9584375 10.505 29.9584375 10 31 C9.34 31 8.68 31 8 31 C7.86722656 30.38511719 7.73445312 29.77023438 7.59765625 29.13671875 C7.42105469 28.32847656 7.24445313 27.52023438 7.0625 26.6875 C6.88847656 25.88699219 6.71445313 25.08648437 6.53515625 24.26171875 C6.00113841 21.854599 6.00113841 21.854599 5 19 C3.02 19 1.04 19 -1 19 C-1 16.36 -1 13.72 -1 11 C1.31 11.33 3.62 11.66 6 12 C6 12.66 6 13.32 6 14 C6.66 14 7.32 14 8 14 C6.47444034 9.18877153 6.47444034 9.18877153 3 6 C2.67 5.01 2.34 4.02 2 3 C1.34 2.67 0.68 2.34 0 2 C0 1.34 0 0.68 0 0 Z " fill="#46CCEF" transform="translate(208,190)"/>
<path d="M0 0 C5.39080111 3.38850355 8.01536619 8.08727353 10 14 C10.56725205 18.88219177 10.5592327 23.32230191 9 28 C8.34 28 7.68 28 7 28 C6.79375 26.88625 6.5875 25.7725 6.375 24.625 C5.24126272 19.96591908 2.96461499 16.36698455 0.33984375 12.39453125 C-1.0822728 9.85296436 -1.68661442 7.88694595 -2 5 C-1.0625 2.1875 -1.0625 2.1875 0 0 Z " fill="#31CEF6" transform="translate(214,180)"/>
<path d="M0 0 C0.66 0 1.32 0 2 0 C2.6095533 9.36341595 1.41182821 13.57384449 -4.3125 21 C-7 23 -7 23 -10.8125 22.8125 C-11.864375 22.544375 -12.91625 22.27625 -14 22 C-13.65787071 19.01785809 -13.36115026 17.39007534 -11.29296875 15.15625 C-10.59816406 14.6096875 -9.90335938 14.063125 -9.1875 13.5 C-4.42161659 9.55405352 -0.73383521 6.42105805 0 0 Z " fill="#7C7C7C" transform="translate(213,114)"/>
<path d="M0 0 C2 2 2 2 2.25 4.75 C1.98998031 8.13025595 1.20288037 10.84243904 0 14 C-0.66 14 -1.32 14 -2 14 C-2.2475 14.5775 -2.495 15.155 -2.75 15.75 C-4.16683317 18.3002997 -5.87627537 20.01785701 -8 22 C-8.99 21.67 -9.98 21.34 -11 21 C-11.33 20.34 -11.66 19.68 -12 19 C-13.32 19.33 -14.64 19.66 -16 20 C-15.68889083 16.92520436 -15.52478078 15.44129293 -13.109375 13.41015625 C-11.94148437 12.74306641 -11.94148437 12.74306641 -10.75 12.0625 C-5.66712651 8.92212593 -1.94821522 5.84464566 0 0 Z " fill="#7D7D7D" transform="translate(210,106)"/>
<path d="M0 0 C4.58928719 0.31987919 8.02804145 1.80834704 12.0625 3.9375 C14.93920163 5.44434371 17.73694738 6.89604578 20.7578125 8.08984375 C23.12163605 9.04937491 24.34714315 10.08616575 26 12 C23.525 11.505 23.525 11.505 21 11 C21 10.34 21 9.68 21 9 C20.071875 9 19.14375 9 18.1875 9 C16.125 9 14.0625 9 12 9 C12 9.66 12 10.32 12 11 C12.66 11.66 13.32 12.32 14 13 C12.35 13.33 10.7 13.66 9 14 C9 13.34 9 12.68 9 12 C6.67184639 10.44789759 4.41205571 9.16482228 1.8125 8.125 C-0.70576933 6.56193628 -1.12882028 4.75873578 -2 2 C-1.34 1.34 -0.68 0.68 0 0 Z " fill="#1C9BD0" transform="translate(180,162)"/>
<path d="M0 0 C1.8125 0.1875 1.8125 0.1875 4 1 C5.87276598 3.63574472 6.97664169 5.92992508 8 9 C9.31403276 9.70394612 10.6520257 10.36345658 12 11 C13.68889872 12.3050581 15.3603279 13.63360658 17 15 C15.35 15.33 13.7 15.66 12 16 C12.33 17.65 12.66 19.3 13 21 C8.24027229 19.88006407 6.02155108 17.19391475 3.29296875 13.37109375 C1.09845648 9.34671626 0 4.6076751 0 0 Z " fill="#1F7DAB" transform="translate(157,143)"/>
<path d="M0 0 C0 0.66 0 1.32 0 2 C1.65 1.67 3.3 1.34 5 1 C4.67 1.66 4.34 2.32 4 3 C3.01 3.33 2.02 3.66 1 4 C0.87625 4.61875 0.7525 5.2375 0.625 5.875 C0 8 0 8 -2.1875 9.8125 C-5.68714135 11.29012635 -7.38648892 11.076365 -11 10 C-13.375 8.5625 -13.375 8.5625 -15 7 C-15 6.34 -15 5.68 -15 5 C-12.8765984 4.16260219 -10.7512272 3.33019717 -8.625 2.5 C-7.44164062 2.0359375 -6.25828125 1.571875 -5.0390625 1.09375 C-2 0 -2 0 0 0 Z " fill="#B5B6B3" transform="translate(181,143)"/>
<path d="M0 0 C0.66 0 1.32 0 2 0 C2 0.66 2 1.32 2 2 C2.67417969 2.09152344 3.34835938 2.18304688 4.04296875 2.27734375 C7.75097572 3.18352775 10.94828493 4.81283099 14.3125 6.5625 C15.28026367 7.0565332 15.28026367 7.0565332 16.26757812 7.56054688 C17.84785228 8.36824255 19.42432105 9.18337613 21 10 C21 10.33 21 10.66 21 11 C18.03 11 15.06 11 12 11 C12.33 10.34 12.66 9.68 13 9 C12.34 8.67 11.68 8.34 11 8 C11 9.32 11 10.64 11 12 C9.02 12.33 7.04 12.66 5 13 C4.731875 12.195625 4.46375 11.39125 4.1875 10.5625 C3.795625 9.716875 3.40375 8.87125 3 8 C2.01 7.67 1.02 7.34 0 7 C-0.495 6.319375 -0.99 5.63875 -1.5 4.9375 C-2.2425 3.9784375 -2.2425 3.9784375 -3 3 C-3.99 3 -4.98 3 -6 3 C-6 2.34 -6 1.68 -6 1 C-4.35 1 -2.7 1 -1 1 C-0.34 2.65 0.32 4.3 1 6 C1.66 6 2.32 6 3 6 C1.515 3.03 1.515 3.03 0 0 Z " fill="#1E93C6" transform="translate(171,169)"/>
<path d="M0 0 C0.66 0.33 1.32 0.66 2 1 C1.484375 1.7425 0.96875 2.485 0.4375 3.25 C-1.2666239 5.81827346 -1.2666239 5.81827346 -0.58984375 8.171875 C-0.29787109 9.07679688 -0.29787109 9.07679688 0 10 C-1.43011973 10.86646667 -2.86940619 11.71781829 -4.3125 12.5625 C-5.11300781 13.03816406 -5.91351563 13.51382813 -6.73828125 14.00390625 C-9 15 -9 15 -12 14 C-11.67 13.01 -11.34 12.02 -11 11 C-10.34 10.67 -9.68 10.34 -9 10 C-9.99 10 -10.98 10 -12 10 C-12 9.34 -12 8.68 -12 8 C-13.670625 8.2784375 -13.670625 8.2784375 -15.375 8.5625 C-19 9 -19 9 -21 8 C-20 7 -20 7 -16.125 6.8125 C-10.7310045 6.31898837 -6.8480079 3.96488808 -2.28515625 1.1796875 C-1.15400391 0.59574219 -1.15400391 0.59574219 0 0 Z " fill="#9D9D9E" transform="translate(193,135)"/>
<path d="M0 0 C4.40385287 2.0413693 8.80366147 4.09095529 13.19726562 6.15429688 C14.59350252 6.80930291 15.99167298 7.46018811 17.390625 8.109375 C24.30394753 11.42079839 30.63346925 15.75564617 37 20 C37 20.99 37 21.98 37 23 C34.57611294 21.88128289 32.47068155 20.63882687 30.2578125 19.12890625 C27.08101942 17.05294434 23.90640036 15.35488522 20.5 13.6875 C19.27858414 13.08606278 18.057232 12.48449612 16.8359375 11.8828125 C15.89766113 11.42310059 15.89766113 11.42310059 14.94042969 10.95410156 C11.65987827 9.34106747 8.39319449 7.70038378 5.125 6.0625 C3.95195312 5.47597656 2.77890625 4.88945312 1.5703125 4.28515625 C0.72210938 3.86105469 -0.12609375 3.43695313 -1 3 C-0.67 2.01 -0.34 1.02 0 0 Z " fill="#053446" transform="translate(174,168)"/>
<path d="M0 0 C0.66 0.66 1.32 1.32 2 2 C1.39992687 7.91500661 -3.88418524 12.2658471 -8.23046875 15.828125 C-26.03174551 28.72170882 -26.03174551 28.72170882 -34 28 C-31.11590869 25.72484676 -28.18836264 23.95442872 -24.9375 22.25 C-12.68605531 15.69815217 -12.68605531 15.69815217 -3 6 C-2.34 6 -1.68 6 -1 6 C-0.67 4.02 -0.34 2.04 0 0 Z " fill="#EBEBEB" transform="translate(211,114)"/>
<path d="M0 0 C0.66 0 1.32 0 2 0 C2 0.66 2 1.32 2 2 C2.99 2.33 3.98 2.66 5 3 C5 3.99 5 4.98 5 6 C5.639375 6.20625 6.27875 6.4125 6.9375 6.625 C9 8 9 8 9.75 11.125 C9.87375 12.548125 9.87375 12.548125 10 14 C9.34 14 8.68 14 8 14 C8 13.34 8 12.68 8 12 C7.34 12 6.68 12 6 12 C5.67 12.66 5.34 13.32 5 14 C5 13.34 5 12.68 5 12 C4.34 12 3.68 12 3 12 C-2 6.76190476 -2 6.76190476 -2 2 C-1.34 2 -0.68 2 0 2 C0 1.34 0 0.68 0 0 Z " fill="#30CCF6" transform="translate(206,190)"/>
<path d="M0 0 C0.66 0 1.32 0 2 0 C2.185625 0.825 2.37125 1.65 2.5625 2.5 C5.23619599 9.0098685 10.35527792 13.89474758 16 18 C14.02 18 12.04 18 10 18 C10 17.34 10 16.68 10 16 C9.34 16 8.68 16 8 16 C5.8328168 13.79913001 3.96277623 11.38946672 2 9 C2.99 12.3 3.98 15.6 5 19 C4.34 19 3.68 19 3 19 C-0.32367399 13.4209758 -1.55128385 9.50514946 -1 3 C-0.67 2.01 -0.34 1.02 0 0 Z " fill="#2B7CA6" transform="translate(155,151)"/>
<path d="M0 0 C3 1 3 1 4 3 C5.01320312 2.65775391 5.01320312 2.65775391 6.046875 2.30859375 C7.38492188 1.87740234 7.38492188 1.87740234 8.75 1.4375 C9.63171875 1.14746094 10.5134375 0.85742188 11.421875 0.55859375 C14.07834316 -0.01697435 15.47031106 0.10751629 18 1 C16.3767313 1.6708712 14.75132422 2.33657029 13.125 3 C12.22007812 3.37125 11.31515625 3.7425 10.3828125 4.125 C8 5 8 5 6 5 C8.80228148 8.11364609 11.07826421 9.59219741 15 11 C15.99 11.66 16.98 12.32 18 13 C18 13.99 18 14.98 18 16 C10.78084175 14.06315266 5.16759257 10.25138886 1 4 C0.25 1.6875 0.25 1.6875 0 0 Z " fill="#171E23" transform="translate(160,143)"/>
<path d="M0 0 C0.66 0 1.32 0 2 0 C2.56905158 12.03438713 2.56905158 12.03438713 -1 16 C-1.99 16.33 -2.98 16.66 -4 17 C-5.3125 14.375 -5.3125 14.375 -6 11 C-3.6875 7.9375 -3.6875 7.9375 -1 5 C-0.13457301 2.27886497 -0.13457301 2.27886497 0 0 Z " fill="#747474" transform="translate(213,114)"/>
<path d="M0 0 C0.33 0 0.66 0 1 0 C1.07476562 0.6290625 1.14953125 1.258125 1.2265625 1.90625 C2.38064635 9.41910959 4.89367722 14.76596222 10.94921875 19.53515625 C12.6251622 20.70117776 14.31169379 21.85195177 16 23 C16 23.66 16 24.32 16 25 C9.41883791 23.14904816 3.6824918 17.64271051 0 12 C-0.1875 9.25 -0.1875 9.25 0 7 C-0.66 6.67 -1.32 6.34 -2 6 C-1.34 6 -0.68 6 0 6 C0 4.02 0 2.04 0 0 Z " fill="#C0EDF8" transform="translate(157,144)"/>
<path d="M0 0 C0.33 0.66 0.66 1.32 1 2 C1.66 2.33 2.32 2.66 3 3 C2.67 3.598125 2.34 4.19625 2 4.8125 C0.79212012 7.05386471 0.79212012 7.05386471 1 10 C-0.32 10 -1.64 10 -3 10 C-3.33 9.34 -3.66 8.68 -4 8 C-5.32 8.33 -6.64 8.66 -8 9 C-7.9375 6.75 -7.9375 6.75 -7 4 C-4.7691525 2.32150176 -2.52594094 1.24000737 0 0 Z " fill="#878787" transform="translate(202,117)"/>
<path d="M0 0 C0.66 0 1.32 0 2 0 C3.69140625 2.3359375 3.69140625 2.3359375 5.5625 5.375 C6.18253906 6.37273437 6.80257812 7.37046875 7.44140625 8.3984375 C9.78678848 12.31328603 10.09958336 14.41916543 10 19 C10.66 19 11.32 19 12 19 C12.33 18.01 12.66 17.02 13 16 C13 17.32 13 18.64 13 20 C11.35 20 9.7 20 8 20 C7.84144531 19.35933594 7.68289062 18.71867187 7.51953125 18.05859375 C6.3087735 13.57009401 5.13665351 9.80129413 2.3125 6.0625 C0 3 0 3 0 0 Z " fill="#B8F9FE" transform="translate(211,189)"/>
<path d="M0 0 C4.82247266 1.39597893 9.09715033 3.48161976 13.53515625 5.78125 C16.00564274 7.04681111 16.00564274 7.04681111 18.6953125 8.0546875 C21.08842019 9.03626726 22.3251369 10.06068483 24 12 C21.525 11.505 21.525 11.505 19 11 C19 10.34 19 9.68 19 9 C17.700625 9.0928125 17.700625 9.0928125 16.375 9.1875 C12.55800967 8.97544498 10.28922464 7.87955693 7 6 C6.67 6.66 6.34 7.32 6 8 C5.01 7.34 4.02 6.68 3 6 C3.66 6 4.32 6 5 6 C3.36587557 4.29159719 2.13093906 3.06546953 0 2 C0 1.34 0 0.68 0 0 Z " fill="#289CC6" transform="translate(182,162)"/>
<path d="M0 0 C0.66 0.33 1.32 0.66 2 1 C1.67 1.66 1.34 2.32 1 3 C3.97 3.99 6.94 4.98 10 6 C10 6.66 10 7.32 10 8 C10.61875 8.12375 11.2375 8.2475 11.875 8.375 C14 9 14 9 16 11 C17.31747324 11.69748583 18.64914193 12.36959957 20 13 C15.92743687 14.35752104 14.46842341 13.16038891 10.625 11.375 C9.50351563 10.86710938 8.38203125 10.35921875 7.2265625 9.8359375 C3.87730693 7.93018675 1.58496568 5.83668518 -1 3 C-0.67 2.01 -0.34 1.02 0 0 Z " fill="#2786AE" transform="translate(170,161)"/>
<path d="M0 0 C1.31538327 4.15771494 0.34433068 6.8879297 -1 11 C-1.66 11 -2.32 11 -3 11 C-3.185625 12.8253125 -3.185625 12.8253125 -3.375 14.6875 C-3.78891306 18.06479059 -4.54573451 20.89756695 -6 24 C-6.66 24 -7.32 24 -8 24 C-7.67 25.65 -7.34 27.3 -7 29 C-7.66 29.33 -8.32 29.66 -9 30 C-10.55499058 26.45353027 -9.49765154 23.9452586 -8.15673828 20.46484375 C-7.87813965 19.77519531 -7.59954102 19.08554688 -7.3125 18.375 C-7.03647949 17.66730469 -6.76045898 16.95960938 -6.47607422 16.23046875 C-5.66147584 14.14919121 -4.83244054 12.07419419 -4 10 C-3.57332031 8.91976562 -3.14664062 7.83953125 -2.70703125 6.7265625 C-1.81540546 4.47979427 -0.91439391 2.23757569 0 0 Z " fill="#3C95BE" transform="translate(289,232)"/>
<path d="M0 0 C1.8125 0.1875 1.8125 0.1875 4 1 C5.56840126 3.26546849 6.77072645 5.5414529 8 8 C6.68 8.33 5.36 8.66 4 9 C4 9.99 4 10.98 4 12 C4.66 12 5.32 12 6 12 C6.33 13.32 6.66 14.64 7 16 C1.65669275 11.78159954 0.8218824 7.62412679 0 1 C0 0.67 0 0.34 0 0 Z " fill="#1B6B97" transform="translate(157,143)"/>
<path d="M0 0 C2.07953068 2.50977841 3.96464561 4.94016949 5.625 7.75 C6.8012504 10.12145809 6.8012504 10.12145809 9 11 C9 9.02 9 7.04 9 5 C9.33 5 9.66 5 10 5 C10.02705729 6.77074917 10.04642195 8.54161711 10.0625 10.3125 C10.07410156 11.29863281 10.08570313 12.28476563 10.09765625 13.30078125 C10 16 10 16 9 19 C8.34 19 7.68 19 7 19 C6.79375 17.88625 6.5875 16.7725 6.375 15.625 C5.03790439 10.13897535 2.05390712 5.68649897 -1 1 C-0.67 0.67 -0.34 0.34 0 0 Z " fill="#5DCDE9" transform="translate(214,189)"/>
<path d="M0 0 C1.32 0.33 2.64 0.66 4 1 C4 1.66 4 2.32 4 3 C4.66 3 5.32 3 6 3 C6.99 5.64 7.98 8.28 9 11 C8.01 10.67 7.02 10.34 6 10 C6 9.34 6 8.68 6 8 C4.02 8 2.04 8 0 8 C0 5.36 0 2.72 0 0 Z " fill="#7AD5EA" transform="translate(207,201)"/>
<path d="M0 0 C0.33 1.98 0.66 3.96 1 6 C0.34 6 -0.32 6 -1 6 C-1 5.34 -1 4.68 -1 4 C-1.61875 4.185625 -2.2375 4.37125 -2.875 4.5625 C-5 5 -5 5 -7 4 C-7 3.34 -7 2.68 -7 2 C-7.99 2 -8.98 2 -10 2 C-10 1.34 -10 0.68 -10 0 C-6.33694766 -0.74926071 -3.57644848 -1.2380014 0 0 Z " fill="#28B5EB" transform="translate(211,178)"/>
<path d="M0 0 C0.66 0.33 1.32 0.66 2 1 C1.01 1.66 0.02 2.32 -1 3 C-0.01 3.33 0.98 3.66 2 4 C2 4.99 2 5.98 2 7 C3.1446875 5.9790625 3.1446875 5.9790625 4.3125 4.9375 C5.199375 4.298125 6.08625 3.65875 7 3 C7.99 3.33 8.98 3.66 10 4 C8.21061684 6.28643404 6.97959106 7.00680298 4.1875 7.9375 C-0.01264649 8.01985581 -1.82252469 6.6478961 -5 4 C-5 3.34 -5 2.68 -5 2 C-2.625 0.9375 -2.625 0.9375 0 0 Z " fill="#A5A8A4" transform="translate(171,146)"/>
<path d="M0 0 C0.99 0 1.98 0 3 0 C3.33 0.99 3.66 1.98 4 3 C3.34 3 2.68 3 2 3 C2.33 5.31 2.66 7.62 3 10 C-0.14191424 8.46395304 -3.08596738 6.94268841 -6 5 C-6 4.34 -6 3.68 -6 3 C-4.35 2.67 -2.7 2.34 -1 2 C-1 2.66 -1 3.32 -1 4 C-0.34 4 0.32 4 1 4 C0.67 2.68 0.34 1.36 0 0 Z " fill="#29C1E8" transform="translate(211,180)"/>
<path d="M0 0 C3.01056424 2.85211349 5.25599001 5.2436708 7 9 C7.66 9.33 8.32 9.66 9 10 C7.35 10.66 5.7 11.32 4 12 C3.32332002 10.75539217 2.65905281 9.50403104 2 8.25 C1.62875 7.55390625 1.2575 6.8578125 0.875 6.140625 C0 4 0 4 0 0 Z " fill="#0C7DB1" transform="translate(156,158)"/>
<path d="M0 0 C0.33 0 0.66 0 1 0 C0.57585079 7.53230495 -0.18065938 12.7348823 -6 18 C-6 14.03579038 -4.49299692 10.91385068 -3 7.3125 C-2.71382813 6.61060547 -2.42765625 5.90871094 -2.1328125 5.18554688 C-1.42651923 3.45512837 -0.71386863 1.72730714 0 0 Z " fill="#CFEEF9" transform="translate(311,246)"/>
<path d="M0 0 C4.95 2.31 9.9 4.62 15 7 C14.67 7.66 14.34 8.32 14 9 C6.5 6 6.5 6 -1 3 C-0.67 2.01 -0.34 1.02 0 0 Z " fill="#02223C" transform="translate(174,168)"/>
<path d="M0 0 C0.99 1.051875 0.99 1.051875 2 2.125 C4.88463486 5.03457407 8.10236326 7.38210156 11.42578125 9.765625 C11.94527344 10.17296875 12.46476563 10.5803125 13 11 C13 11.33 13 11.66 13 12 C11.02 12 9.04 12 7 12 C7 11.34 7 10.68 7 10 C6.34 10 5.68 10 5 10 C3.7109375 8.3203125 3.7109375 8.3203125 2.375 6.125 C1.92898437 5.40570313 1.48296875 4.68640625 1.0234375 3.9453125 C0 2 0 2 0 0 Z " fill="#2C87AE" transform="translate(158,157)"/>
<path d="M0 0 C2.875 -0.125 2.875 -0.125 6 0 C6.66 0.66 7.32 1.32 8 2 C7.34 3.32 6.68 4.64 6 6 C1.25 4.125 1.25 4.125 -1 3 C-0.67 2.01 -0.34 1.02 0 0 Z " fill="#1AA7DC" transform="translate(185,181)"/>
<path d="M0 0 C0.721875 0.61875 1.44375 1.2375 2.1875 1.875 C4.80934183 3.85594716 6.95082659 4.87662032 10 6 C10.99 6.66 11.98 7.32 13 8 C13 8.99 13 9.98 13 11 C8.16098317 9.70172719 3.47167326 7.71818261 0 4 C0 2.68 0 1.36 0 0 Z " fill="#061D29" transform="translate(165,148)"/>
<path d="M0 0 C0.66 0 1.32 0 2 0 C2 0.66 2 1.32 2 2 C2.66 2.33 3.32 2.66 4 3 C3.67 3.99 3.34 4.98 3 6 C2.34 5.67 1.68 5.34 1 5 C1.66 6.32 2.32 7.64 3 9 C2.01 9 1.02 9 0 9 C-2 6 -2 6 -2 2 C-1.34 2 -0.68 2 0 2 C0 1.34 0 0.68 0 0 Z " fill="#2BC3EE" transform="translate(206,190)"/>
<path d="M0 0 C4.9154515 1.31877967 9.36441776 3.37517392 13 7 C13 7.99 13 8.98 13 10 C9.74035658 8.51222697 7.06830707 6.64333184 4.25 4.4375 C3.45078125 3.81746094 2.6515625 3.19742188 1.828125 2.55859375 C1.22484375 2.04425781 0.6215625 1.52992188 0 1 C0 0.67 0 0.34 0 0 Z " fill="#032A3B" transform="translate(198,181)"/>
<path d="M0 0 C4.875 0.875 4.875 0.875 6 2 C6.04080783 3.99958364 6.04254356 6.00045254 6 8 C5.01 8.495 5.01 8.495 4 9 C2.5 7.75 2.5 7.75 1 6 C1 4.68 1 3.36 1 2 C0.67 1.34 0.34 0.68 0 0 Z " fill="#25A7D8" transform="translate(190,169)"/>
<path d="M0 0 C0.66 0 1.32 0 2 0 C1.26753005 6.00625355 -0.64398469 10.96597704 -4 16 C-3.65697965 10.01488629 -3.17692157 5.24882694 0 0 Z " fill="#CAEFF9" transform="translate(282,245)"/>
<path d="M0 0 C0 0.33 0 0.66 0 1 C-1.65 1 -3.3 1 -5 1 C-5 1.66 -5 2.32 -5 3 C-4.01 3 -3.02 3 -2 3 C-2 3.66 -2 4.32 -2 5 C-1.34 5.33 -0.68 5.66 0 6 C-0.99 6.495 -0.99 6.495 -2 7 C-4.1640625 6.00390625 -4.1640625 6.00390625 -6.625 4.5625 C-7.44226563 4.08941406 -8.25953125 3.61632812 -9.1015625 3.12890625 C-9.72804687 2.75636719 -10.35453125 2.38382813 -11 2 C-11 1.67 -11 1.34 -11 1 C-6.87831311 -0.62950412 -4.29299643 -1.26264601 0 0 Z " fill="#329EC5" transform="translate(206,177)"/>
<path d="M0 0 C2.59937954 2.46941056 4.79020692 5.18060883 7 8 C6.01 8.495 6.01 8.495 5 9 C3.0546875 8.00390625 3.0546875 8.00390625 0.875 6.5625 C0.15054688 6.08941406 -0.57390625 5.61632812 -1.3203125 5.12890625 C-1.87460938 4.75636719 -2.42890625 4.38382813 -3 4 C-2.34 3.67 -1.68 3.34 -1 3 C-0.67 2.01 -0.34 1.02 0 0 Z " fill="#2C89B7" transform="translate(168,171)"/>
<path d="M0 0 C3.82097239 0.53069061 6.06171403 1.49701566 9 4 C6 6 6 6 3.9375 5.6875 C2 5 2 5 0 4 C0 2.68 0 1.36 0 0 Z " fill="#2389B9" transform="translate(173,158)"/>
<path d="M0 0 C0.66 0 1.32 0 2 0 C0.40109514 5.19644079 -1.74138003 10.06612142 -4 15 C-5.1700097 11.08263419 -4.69584017 8.02040985 -4 4 C-3.01 4.33 -2.02 4.66 -1 5 C-0.67 3.35 -0.34 1.7 0 0 Z " fill="#3291BC" transform="translate(313,238)"/>
<path d="M0 0 C4.42655846 0.5147161 7.29009575 1.55927352 11 4 C12.32608822 4.68096422 13.65686601 5.35330586 15 6 C14.34 6.66 13.68 7.32 13 8 C8.71 5.69 4.42 3.38 0 1 C0 0.67 0 0.34 0 0 Z " fill="#2F91B5" transform="translate(178,182)"/>
<path d="M0 0 C4.63009345 3.08672897 7.25165244 6.75495732 9 12 C8.67 12.66 8.34 13.32 8 14 C6 13 6 13 5.1484375 10.93359375 C4.76558594 9.69802734 4.76558594 9.69802734 4.375 8.4375 C4.11460937 7.61121094 3.85421875 6.78492188 3.5859375 5.93359375 C3.39257812 5.29550781 3.19921875 4.65742188 3 4 C2.34 4 1.68 4 1 4 C0.67 2.68 0.34 1.36 0 0 Z " fill="#52CAE4" transform="translate(214,180)"/>
<path d="M0 0 C4.84186604 1.1173537 7.82807648 2.09609413 11 6 C11.33 6.66 11.66 7.32 12 8 C8.21213403 7.4739075 5.82847776 6.61896089 3 4 C3 3.34 3 2.68 3 2 C2.01 1.67 1.02 1.34 0 1 C0 0.67 0 0.34 0 0 Z " fill="#37ACCA" transform="translate(197,193)"/>
<path d="M0 0 C0.99 0.33 1.98 0.66 3 1 C2.67 1.33 2.34 1.66 2 2 C4.64 2.33 7.28 2.66 10 3 C9.67 3.66 9.34 4.32 9 5 C8.071875 4.979375 7.14375 4.95875 6.1875 4.9375 C2.97713989 4.84230396 2.97713989 4.84230396 0 6 C-2.1875 5.0625 -2.1875 5.0625 -4 4 C-2.68 3.34 -1.36 2.68 0 2 C0 1.34 0 0.68 0 0 Z " fill="#24A1D5" transform="translate(182,177)"/>
<path d="M0 0 C0 0.66 0 1.32 0 2 C-0.99 2.33 -1.98 2.66 -3 3 C-2.34 3.33 -1.68 3.66 -1 4 C-1 5.32 -1 6.64 -1 8 C-3.64 7.34 -6.28 6.68 -9 6 C-8.01 5.67 -7.02 5.34 -6 5 C-5.30062468 3.68352881 -4.63270867 2.34977849 -4 1 C-2 0 -2 0 0 0 Z " fill="#CECFCF" transform="translate(168,136)"/>
<path d="M0 0 C0.99 0.33 1.98 0.66 3 1 C3.625 3.375 3.625 3.375 4 6 C3.34 6.66 2.68 7.32 2 8 C1.34 6.68 0.68 5.36 0 4 C-0.66 4 -1.32 4 -2 4 C-2 3.01 -2 2.02 -2 1 C-1.34 0.67 -0.68 0.34 0 0 Z " fill="#137EBB" transform="translate(163,151)"/>
<path d="M0 0 C0 0.66 0 1.32 0 2 C-8.261959 6.59225513 -8.261959 6.59225513 -13 6 C-9.09130466 2.84297684 -5.1385061 0 0 0 Z " fill="#F5F5F5" transform="translate(190,136)"/>
<path d="M0 0 C0.99 0.33 1.98 0.66 3 1 C4.1875 4.0625 4.1875 4.0625 5 7 C2.69 6.67 0.38 6.34 -2 6 C-1.125 1.125 -1.125 1.125 0 0 Z " fill="#838383" transform="translate(201,130)"/>
<path d="M0 0 C0.66 0.66 1.32 1.32 2 2 C1.84831437 6.24719772 -1.32816401 8.98562093 -4 12 C-4.66 11.34 -5.32 10.68 -6 10 C-4.625 8 -4.625 8 -3 6 C-2.34 6 -1.68 6 -1 6 C-0.67 4.02 -0.34 2.04 0 0 Z " fill="#DFDFDF" transform="translate(211,114)"/>
<path d="M0 0 C3.7910119 1.44950455 7.3874638 3.15172566 11 5 C11 5.33 11 5.66 11 6 C8.36 6.33 5.72 6.66 3 7 C3 6.01 3 5.02 3 4 C2.01 3.34 1.02 2.68 0 2 C0 1.34 0 0.68 0 0 Z " fill="#32AAD0" transform="translate(192,180)"/>
<path d="M0 0 C1.60785777 0.59427388 3.21117709 1.20083588 4.8125 1.8125 C6.15248047 2.31716797 6.15248047 2.31716797 7.51953125 2.83203125 C9.91924072 3.96197319 11.28423353 5.01062293 13 7 C11.35 6.67 9.7 6.34 8 6 C8 5.34 8 4.68 8 4 C6.02 4 4.04 4 2 4 C1.34 2.68 0.68 1.36 0 0 Z " fill="#36A2C3" transform="translate(193,167)"/>
<path d="M0 0 C-1.3125 1.5 -1.3125 1.5 -3 3 C-3.99 3 -4.98 3 -6 3 C-6 2.34 -6 1.68 -6 1 C-7.670625 1.2784375 -7.670625 1.2784375 -9.375 1.5625 C-13 2 -13 2 -15 1 C-11.85125386 -2.14874614 -3.86606338 -1.1224055 0 0 Z " fill="#9B9B9B" transform="translate(187,142)"/>
<path d="M0 0 C1.98 0 3.96 0 6 0 C9 6.75 9 6.75 9 9 C8.34 9 7.68 9 7 9 C5 7 5 7 4.875 3.875 C4.91625 2.92625 4.9575 1.9775 5 1 C3.35 1 1.7 1 0 1 C0 0.67 0 0.34 0 0 Z " fill="#143240" transform="translate(207,209)"/>
<path d="M0 0 C2.5 1.375 2.5 1.375 5 3 C5 3.66 5 4.32 5 5 C5.99 5.33 6.98 5.66 8 6 C5.13822943 7.43088528 3.06624227 6.59991697 0 6 C0 4.02 0 2.04 0 0 Z " fill="#031B2A" transform="translate(195,192)"/>
<path d="M0 0 C0.66 0 1.32 0 2 0 C2 0.66 2 1.32 2 2 C2.66 2.33 3.32 2.66 4 3 C1.1875 4.5625 1.1875 4.5625 -2 6 C-2.99 5.67 -3.98 5.34 -5 5 C-5 4.34 -5 3.68 -5 3 C-4.360625 2.87625 -3.72125 2.7525 -3.0625 2.625 C-2.0415625 2.315625 -2.0415625 2.315625 -1 2 C-0.67 1.34 -0.34 0.68 0 0 Z " fill="#A9A9A9" transform="translate(181,135)"/>
<path d="M0 0 C3 3.75 3 3.75 3 6 C2.01 6.495 2.01 6.495 1 7 C0.27306096 8.97888961 -0.39816251 10.97954558 -1 13 C-2.07310858 9.72814447 -1.89263102 7.57052408 -1.0625 4.25 C-0.86785156 3.45078125 -0.67320312 2.6515625 -0.47265625 1.828125 C-0.31667969 1.22484375 -0.16070312 0.6215625 0 0 Z " fill="#474747" transform="translate(146,290)"/>
<path d="M0 0 C0.66 0 1.32 0 2 0 C1.4140625 6.15234375 1.4140625 6.15234375 1 8 C0.01 8.495 0.01 8.495 -1 9 C-1.09765625 2.84765625 -1.09765625 2.84765625 -1 1 C-0.67 0.67 -0.34 0.34 0 0 Z " fill="#EFFDFF" transform="translate(276,256)"/>
<path d="M0 0 C1.32 0.33 2.64 0.66 4 1 C4.33 2.98 4.66 4.96 5 7 C4.34 7 3.68 7 3 7 C3 6.34 3 5.68 3 5 C2.01 5 1.02 5 0 5 C0 3.35 0 1.7 0 0 Z " fill="#31C1F0" transform="translate(207,177)"/>
<path d="M0 0 C5 2 5 2 10 4 C10 4.33 10 4.66 10 5 C7.03 5 4.06 5 1 5 C1 4.01 1 3.02 1 2 C0.67 1.34 0.34 0.68 0 0 Z " fill="#2C95BD" transform="translate(182,175)"/>
<path d="M0 0 C0.33 0 0.66 0 1 0 C0.67 3.3 0.34 6.6 0 10 C-0.99 10.33 -1.98 10.66 -3 11 C-3 9.68 -3 8.36 -3 7 C-2.34 7 -1.68 7 -1 7 C-0.67 4.69 -0.34 2.38 0 0 Z " fill="#3A94AA" transform="translate(219,210)"/>
<path d="M0 0 C5.53846154 0.61538462 5.53846154 0.61538462 7.875 2.5625 C8.431875 3.2740625 8.431875 3.2740625 9 4 C8.67 4.66 8.34 5.32 8 6 C6.66402348 5.19185349 5.331275 4.37836819 4 3.5625 C3.2575 3.11003906 2.515 2.65757812 1.75 2.19140625 C1.1725 1.79824219 0.595 1.40507812 0 1 C0 0.67 0 0.34 0 0 Z " fill="#3AB1CC" transform="translate(205,184)"/>
<path d="M0 0 C2.97 0 5.94 0 9 0 C9.33 1.65 9.66 3.3 10 5 C9.01 4.67 8.02 4.34 7 4 C6.67 3.34 6.34 2.68 6 2 C4.02 2 2.04 2 0 2 C0 1.34 0 0.68 0 0 Z " fill="#A1A5A8" transform="translate(156,142)"/>
<path d="M0 0 C0.66 0.33 1.32 0.66 2 1 C1.34 3.31 0.68 5.62 0 8 C-0.99 7.67 -1.98 7.34 -3 7 C-2.67 5.68 -2.34 4.36 -2 3 C-1.34 3.33 -0.68 3.66 0 4 C0 2.68 0 1.36 0 0 Z " fill="#44C6E5" transform="translate(218,209)"/>
<path d="M0 0 C1.27875 0.103125 2.5575 0.20625 3.875 0.3125 C4.95394531 0.39951172 4.95394531 0.39951172 6.0546875 0.48828125 C8 1 8 1 10 4 C6.44219804 3.39009109 3.3171411 2.4216319 0 1 C0 0.67 0 0.34 0 0 Z " fill="#082D3E" transform="translate(192,166)"/>
</svg>
